<svg id="visual" viewBox="0 0 3840 2160" width="3840" height="2160" xmlns="http://www.w3.org/2000/svg" xmlns:xlink="http://www.w3.org/1999/xlink" version="1.1"><rect x="0" y="0" width="3840" height="2160" fill="#fff"></rect><defs><linearGradient id="grad1_0" x1="43.8%" y1="0%" x2="100%" y2="100%"><stop offset="14.444444444444446%" stop-color="#0ea5e9" stop-opacity="1"></stop><stop offset="85.55555555555554%" stop-color="#0ea5e9" stop-opacity="1"></stop></linearGradient></defs><defs><linearGradient id="grad1_1" x1="43.8%" y1="0%" x2="100%" y2="100%"><stop offset="14.444444444444446%" stop-color="#0ea5e9" stop-opacity="1"></stop><stop offset="85.55555555555554%" stop-color="#85c2f1" stop-opacity="1"></stop></linearGradient></defs><defs><linearGradient id="grad1_2" x1="43.8%" y1="0%" x2="100%" y2="100%"><stop offset="14.444444444444446%" stop-color="#c6e0f8" stop-opacity="1"></stop><stop offset="85.55555555555554%" stop-color="#85c2f1" stop-opacity="1"></stop></linearGradient></defs><defs><linearGradient id="grad1_3" x1="43.8%" y1="0%" x2="100%" y2="100%"><stop offset="14.444444444444446%" stop-color="#c6e0f8" stop-opacity="1"></stop><stop offset="85.55555555555554%" stop-color="#ffffff" stop-opacity="1"></stop></linearGradient></defs><defs><linearGradient id="grad2_0" x1="0%" y1="0%" x2="56.3%" y2="100%"><stop offset="14.444444444444446%" stop-color="#0ea5e9" stop-opacity="1"></stop><stop offset="85.55555555555554%" stop-color="#0ea5e9" stop-opacity="1"></stop></linearGradient></defs><defs><linearGradient id="grad2_1" x1="0%" y1="0%" x2="56.3%" y2="100%"><stop offset="14.444444444444446%" stop-color="#85c2f1" stop-opacity="1"></stop><stop offset="85.55555555555554%" stop-color="#0ea5e9" stop-opacity="1"></stop></linearGradient></defs><defs><linearGradient id="grad2_2" x1="0%" y1="0%" x2="56.3%" y2="100%"><stop offset="14.444444444444446%" stop-color="#85c2f1" stop-opacity="1"></stop><stop offset="85.55555555555554%" stop-color="#c6e0f8" stop-opacity="1"></stop></linearGradient></defs><defs><linearGradient id="grad2_3" x1="0%" y1="0%" x2="56.3%" y2="100%"><stop offset="14.444444444444446%" stop-color="#ffffff" stop-opacity="1"></stop><stop offset="85.55555555555554%" stop-color="#c6e0f8" stop-opacity="1"></stop></linearGradient></defs><g transform="translate(3840, 0)"><path d="M0 2052C-179.8 2039.1 -359.6 2026.2 -531.1 1982.1C-702.6 1938 -865.8 1862.7 -1023.5 1772.8C-1181.2 1682.9 -1333.2 1578.4 -1436.1 1436.1C-1539 1293.9 -1592.7 1113.9 -1648.9 952C-1705.1 790.1 -1763.8 646.4 -1831.4 490.7C-1899 335.1 -1975.5 167.5 -2052 0L0 0Z" fill="#e3effc"></path><path d="M0 1539C-134.8 1529.3 -269.7 1519.6 -398.3 1486.6C-527 1453.5 -649.4 1397 -767.6 1329.6C-885.9 1262.1 -999.9 1183.8 -1077.1 1077.1C-1154.3 970.4 -1194.5 835.4 -1236.7 714C-1278.8 592.6 -1322.8 484.8 -1373.5 368C-1424.2 251.3 -1481.6 125.7 -1539 0L0 0Z" fill="#a7d1f5"></path><path d="M0 1026C-89.9 1019.5 -179.8 1013.1 -265.5 991C-351.3 969 -432.9 931.3 -511.7 886.4C-590.6 841.4 -666.6 789.2 -718.1 718.1C-769.5 646.9 -796.4 556.9 -824.5 476C-852.6 395.1 -881.9 323.2 -915.7 245.4C-949.5 167.5 -987.7 83.8 -1026 0L0 0Z" fill="#5db3ed"></path><path d="M0 513C-44.9 509.8 -89.9 506.5 -132.8 495.5C-175.7 484.5 -216.5 465.7 -255.9 443.2C-295.3 420.7 -333.3 394.6 -359 359C-384.8 323.5 -398.2 278.5 -412.2 238C-426.3 197.5 -440.9 161.6 -457.8 122.7C-474.7 83.8 -493.9 41.9 -513 0L0 0Z" fill="#0ea5e9"></path></g><g transform="translate(0, 2160)"><path d="M0 -2052C178.2 -2040.7 356.5 -2029.4 531.1 -1982.1C705.7 -1934.7 876.7 -1851.3 991 -1716.5C1105.3 -1581.6 1162.8 -1395.2 1262.2 -1262.2C1361.5 -1129.2 1502.7 -1049.6 1618.6 -934.5C1734.5 -819.4 1825.2 -668.9 1893.2 -507.3C1961.2 -345.6 2006.6 -172.8 2052 0L0 0Z" fill="#e3effc"></path><path d="M0 -1539C133.7 -1530.5 267.4 -1522.1 398.3 -1486.6C529.3 -1451.1 657.5 -1388.5 743.2 -1287.3C829 -1186.2 872.1 -1046.4 946.6 -946.6C1021.2 -846.9 1127 -787.2 1214 -700.9C1300.9 -614.6 1368.9 -501.7 1419.9 -380.5C1470.9 -259.2 1505 -129.6 1539 0L0 0Z" fill="#a7d1f5"></path><path d="M0 -1026C89.1 -1020.4 178.2 -1014.7 265.5 -991C352.9 -967.4 438.4 -925.7 495.5 -858.2C552.6 -790.8 581.4 -697.6 631.1 -631.1C680.8 -564.6 751.3 -524.8 809.3 -467.3C867.3 -409.7 912.6 -334.5 946.6 -253.6C980.6 -172.8 1003.3 -86.4 1026 0L0 0Z" fill="#5db3ed"></path><path d="M0 -513C44.6 -510.2 89.1 -507.4 132.8 -495.5C176.4 -483.7 219.2 -462.8 247.7 -429.1C276.3 -395.4 290.7 -348.8 315.5 -315.5C340.4 -282.3 375.7 -262.4 404.7 -233.6C433.6 -204.9 456.3 -167.2 473.3 -126.8C490.3 -86.4 501.7 -43.2 513 0L0 0Z" fill="#0ea5e9"></path></g></svg>