<svg id="visual" viewBox="0 0 900 600" width="900" height="600" xmlns="http://www.w3.org/2000/svg" xmlns:xlink="http://www.w3.org/1999/xlink" version="1.1"><rect x="0" y="0" width="900" height="600" fill="#001220"></rect><path d="M0 367L21.5 378.7C43 390.3 86 413.7 128.8 423.3C171.7 433 214.3 429 257.2 425.3C300 421.7 343 418.3 385.8 415.7C428.7 413 471.3 411 514.2 402.5C557 394 600 379 642.8 375.8C685.7 372.7 728.3 381.3 771.2 388.8C814 396.3 857 402.7 878.5 405.8L900 409L900 601L878.5 601C857 601 814 601 771.2 601C728.3 601 685.7 601 642.8 601C600 601 557 601 514.2 601C471.3 601 428.7 601 385.8 601C343 601 300 601 257.2 601C214.3 601 171.7 601 128.8 601C86 601 43 601 21.5 601L0 601Z" fill="#ff0066"></path><path d="M0 458L21.5 447.8C43 437.7 86 417.3 128.8 406.8C171.7 396.3 214.3 395.7 257.2 407.8C300 420 343 445 385.8 449C428.7 453 471.3 436 514.2 427.3C557 418.7 600 418.3 642.8 424.3C685.7 430.3 728.3 442.7 771.2 444.2C814 445.7 857 436.3 878.5 431.7L900 427L900 601L878.5 601C857 601 814 601 771.2 601C728.3 601 685.7 601 642.8 601C600 601 557 601 514.2 601C471.3 601 428.7 601 385.8 601C343 601 300 601 257.2 601C214.3 601 171.7 601 128.8 601C86 601 43 601 21.5 601L0 601Z" fill="#b71b7d"></path><path d="M0 488L21.5 488.3C43 488.7 86 489.3 128.8 492.5C171.7 495.7 214.3 501.3 257.2 494.7C300 488 343 469 385.8 468.3C428.7 467.7 471.3 485.3 514.2 494.3C557 503.3 600 503.7 642.8 502C685.7 500.3 728.3 496.7 771.2 485.8C814 475 857 457 878.5 448L900 439L900 601L878.5 601C857 601 814 601 771.2 601C728.3 601 685.7 601 642.8 601C600 601 557 601 514.2 601C471.3 601 428.7 601 385.8 601C343 601 300 601 257.2 601C214.3 601 171.7 601 128.8 601C86 601 43 601 21.5 601L0 601Z" fill="#672c76"></path><path d="M0 542L21.5 539.3C43 536.7 86 531.3 128.8 525.2C171.7 519 214.3 512 257.2 507C300 502 343 499 385.8 500C428.7 501 471.3 506 514.2 511.8C557 517.7 600 524.3 642.8 527.2C685.7 530 728.3 529 771.2 530C814 531 857 534 878.5 535.5L900 537L900 601L878.5 601C857 601 814 601 771.2 601C728.3 601 685.7 601 642.8 601C600 601 557 601 514.2 601C471.3 601 428.7 601 385.8 601C343 601 300 601 257.2 601C214.3 601 171.7 601 128.8 601C86 601 43 601 21.5 601L0 601Z" fill="#222553"></path><path d="M0 565L21.5 561.7C43 558.3 86 551.7 128.8 544.8C171.7 538 214.3 531 257.2 527.7C300 524.3 343 524.7 385.8 526.2C428.7 527.7 471.3 530.3 514.2 532C557 533.7 600 534.3 642.8 538.5C685.7 542.7 728.3 550.3 771.2 556.5C814 562.7 857 567.3 878.5 569.7L900 572L900 601L878.5 601C857 601 814 601 771.2 601C728.3 601 685.7 601 642.8 601C600 601 557 601 514.2 601C471.3 601 428.7 601 385.8 601C343 601 300 601 257.2 601C214.3 601 171.7 601 128.8 601C86 601 43 601 21.5 601L0 601Z" fill="#001122"></path></svg>